<svg width="24" height="24" viewBox="0 0 24 24" fill="none" xmlns="http://www.w3.org/2000/svg">
<rect x="0.7" y="0.7" width="22.6" height="22.6" rx="11.3" stroke="white" stroke-width="1.4"/>
<path fill-rule="evenodd" clip-rule="evenodd" d="M8.83915 6.80336C8.45255 6.80336 8.13915 7.11676 8.13915 7.50336C8.13915 7.88995 8.45255 8.20336 8.83915 8.20336L14.783 8.20336L7.07722 15.9092C6.80385 16.1825 6.80385 16.6257 7.07722 16.8991C7.35058 17.1725 7.7938 17.1725 8.06717 16.8991L15.7754 9.19091V15.1396C15.7754 15.5262 16.0888 15.8396 16.4754 15.8396C16.862 15.8396 17.1754 15.5262 17.1754 15.1396V7.58611C17.1754 7.15381 16.8249 6.80336 16.3926 6.80336L8.83915 6.80336Z" fill="white"/>
</svg>
